<svg width="14" height="15" viewBox="0 0 14 15" fill="none" xmlns="http://www.w3.org/2000/svg">
<path d="M9.9165 1.08377C10.0711 1.08377 10.2192 1.14538 10.3286 1.25467C10.4379 1.36399 10.4994 1.51219 10.4995 1.66678V2.25076H11.0835C11.5475 2.25085 11.9927 2.43535 12.3208 2.76346C12.6488 3.09162 12.8335 3.53679 12.8335 4.00076V12.1668C12.8335 12.6308 12.6488 13.0759 12.3208 13.4041C11.9927 13.7322 11.5475 13.9167 11.0835 13.9168H2.9165C2.45238 13.9168 2.00739 13.7323 1.6792 13.4041C1.35111 13.0759 1.1665 12.6308 1.1665 12.1668V4.00076C1.1665 3.53671 1.35111 3.09163 1.6792 2.76346C2.00739 2.43527 2.45238 2.25076 2.9165 2.25076H3.49951V1.66678C3.4996 1.51226 3.56119 1.36397 3.67041 1.25467C3.77981 1.14527 3.92879 1.08377 4.0835 1.08377C4.23809 1.08386 4.38629 1.14535 4.49561 1.25467C4.60492 1.36399 4.66642 1.51219 4.6665 1.66678V2.25076H9.3335V1.66678C9.33358 1.51219 9.39507 1.36399 9.50439 1.25467C9.61377 1.14537 9.76187 1.08377 9.9165 1.08377ZM2.3335 12.1668C2.3335 12.3215 2.395 12.4705 2.50439 12.5799C2.61376 12.6891 2.76195 12.7508 2.9165 12.7508H11.0835C11.238 12.7507 11.3863 12.6891 11.4956 12.5799C11.605 12.4705 11.6665 12.3215 11.6665 12.1668V6.91678H2.3335V12.1668ZM7.6792 8.30838C7.91855 8.06145 8.30701 8.06149 8.54639 8.30838C8.78576 8.55533 8.78576 8.95596 8.54639 9.20291L7.8667 9.90408L8.65869 10.7215C8.89801 10.9684 8.89805 11.3691 8.65869 11.616C8.41932 11.8629 8.03087 11.8629 7.7915 11.616L6.99951 10.7986L6.20752 11.616C5.96815 11.8629 5.5797 11.8629 5.34033 11.616C5.10097 11.3691 5.10101 10.9684 5.34033 10.7215L6.13232 9.90408L5.45264 9.20291C5.21326 8.95596 5.21326 8.55533 5.45264 8.30838C5.69202 8.06148 6.08046 8.06145 6.31982 8.30838L6.99951 9.00955L7.6792 8.30838ZM2.9165 3.41678C2.76195 3.41678 2.61376 3.47848 2.50439 3.58768C2.395 3.69707 2.3335 3.84605 2.3335 4.00076V5.75076H11.6665V4.00076C11.6665 3.84605 11.605 3.69707 11.4956 3.58768C11.3863 3.47846 11.238 3.41686 11.0835 3.41678H10.4995V4.00076C10.4994 4.15536 10.4379 4.30355 10.3286 4.41287C10.2192 4.52217 10.0711 4.58377 9.9165 4.58377C9.76187 4.58377 9.61377 4.52217 9.50439 4.41287C9.39507 4.30355 9.33358 4.15536 9.3335 4.00076V3.41678H4.6665V4.00076C4.66642 4.15536 4.60493 4.30355 4.49561 4.41287C4.38629 4.52219 4.23809 4.58368 4.0835 4.58377C3.92879 4.58377 3.77981 4.52227 3.67041 4.41287C3.56119 4.30357 3.4996 4.15528 3.49951 4.00076V3.41678H2.9165Z" fill="#AB22FF"/>
</svg>
