<svg width="102" height="103" viewBox="0 0 102 103" fill="none" xmlns="http://www.w3.org/2000/svg">
<path d="M102 51.4403C102 79.6068 79.1665 102.44 51 102.44C22.8335 102.44 0 79.6068 0 51.4403C0 23.2738 22.8335 0.440308 51 0.440308C79.1665 0.440308 102 23.2738 102 51.4403ZM17.7993 51.4403C17.7993 69.7765 32.6638 84.641 51 84.641C69.3362 84.641 84.2007 69.7765 84.2007 51.4403C84.2007 33.1041 69.3362 18.2396 51 18.2396C32.6638 18.2396 17.7993 33.1041 17.7993 51.4403Z" fill="#C4C4C4"/>
<path d="M42.4652 1.15952C49.4355 -0.02363 56.5756 0.25538 63.4323 1.97884C70.289 3.70229 76.7125 6.83254 82.2949 11.1709C87.8773 15.5092 92.4968 20.9608 95.86 27.1796C99.2232 33.3984 101.257 40.2485 101.831 47.2951C102.406 54.3417 101.509 61.4308 99.198 68.1123C96.8868 74.7938 93.2116 80.9219 88.4059 86.1073C83.6001 91.2928 77.7686 95.4224 71.2818 98.234C64.7949 101.046 57.7943 102.478 50.7245 102.44L50.8201 84.7405C55.4364 84.7655 60.0075 83.8303 64.2431 81.9945C68.4787 80.1586 72.2864 77.4622 75.4243 74.0763C78.5623 70.6904 80.962 66.6891 82.4711 62.3264C83.9802 57.9636 84.5657 53.3348 84.1905 48.7337C83.8153 44.1326 82.4875 39.6597 80.2915 35.5992C78.0955 31.5386 75.0792 27.9789 71.4342 25.1462C67.7891 22.3134 63.5949 20.2695 59.1177 19.1442C54.6406 18.0189 49.9785 17.8367 45.4272 18.6092L42.4652 1.15952Z" fill="#2ECC71"/>
<path d="M7.04815 77.3099C2.60313 69.7579 0.178996 61.1879 0.0095368 52.4265C-0.159923 43.6651 1.93101 35.0079 6.08068 27.2896C10.2303 19.5714 16.2987 13.0526 23.7007 8.36194C31.1026 3.67125 39.5883 0.96692 48.3394 0.509757L49.2627 18.185C43.5486 18.4835 38.0079 20.2493 33.1748 23.3121C28.3417 26.3749 24.3793 30.6314 21.6697 35.671C18.9602 40.7107 17.5949 46.3635 17.7055 52.0843C17.8162 57.8051 19.399 63.4009 22.3014 68.332L7.04815 77.3099Z" fill="#F2994A"/>
<path d="M51 102.44C37.474 102.44 24.5019 97.0671 14.9376 87.5028C5.3732 77.9384 -3.76269e-07 64.9663 0 51.4403C3.76269e-07 37.9143 5.3732 24.9422 14.9376 15.3779C24.5019 5.81351 37.474 0.440307 51 0.440308V18.1396C42.1681 18.1396 33.6979 21.6481 27.4529 27.8932C21.2078 34.1382 17.6993 42.6084 17.6993 51.4403C17.6993 60.2722 21.2078 68.7424 27.4529 74.9875C33.6979 81.2326 42.1681 84.741 51 84.741L51 102.44Z" fill="#2ECC71"/>
<path d="M35.756 50.3721V47.4659L43.043 35.9858H45.5487V40.0085H44.0657L39.4719 47.2784V47.4147H49.8271V50.3721H35.756ZM44.1339 53.4403V49.4858L44.2021 48.1988V35.9858H47.6623V53.4403H44.1339ZM59.1296 53.8238C57.6637 53.8181 56.4023 53.4574 55.3455 52.7414C54.2944 52.0255 53.4847 50.9886 52.9165 49.6306C52.354 48.2727 52.0756 46.6392 52.0813 44.7301C52.0813 42.8267 52.3626 41.2045 52.9251 39.8636C53.4933 38.5227 54.3029 37.5028 55.354 36.8039C56.4109 36.0994 57.6694 35.7471 59.1296 35.7471C60.5898 35.7471 61.8455 36.0994 62.8967 36.8039C63.9535 37.5085 64.766 38.5312 65.3342 39.8721C65.9023 41.2074 66.1836 42.8267 66.1779 44.7301C66.1779 46.6449 65.8938 48.2812 65.3256 49.6392C64.7631 50.9971 63.9563 52.0341 62.9052 52.75C61.854 53.4659 60.5955 53.8238 59.1296 53.8238ZM59.1296 50.7642C60.1296 50.7642 60.9279 50.2613 61.5245 49.2556C62.1211 48.25 62.4165 46.7414 62.4109 44.7301C62.4109 43.4062 62.2745 42.3039 62.0018 41.4233C61.7347 40.5426 61.354 39.8806 60.8597 39.4375C60.3711 38.9943 59.7944 38.7727 59.1296 38.7727C58.1353 38.7727 57.3398 39.2699 56.7433 40.2642C56.1467 41.2585 55.8455 42.7471 55.8398 44.7301C55.8398 46.071 55.9734 47.1903 56.2404 48.088C56.5131 48.9801 56.8967 49.6505 57.391 50.0994C57.8853 50.5426 58.4648 50.7642 59.1296 50.7642Z" fill="#333333"/>
<path d="M30.8864 66.1591V69.4403H30.0483V62.1676H30.8864V64.838H30.9574C31.0852 64.5563 31.277 64.3326 31.5327 64.1669C31.7907 63.9988 32.134 63.9147 32.5625 63.9147C32.9342 63.9147 33.2597 63.9893 33.5391 64.1385C33.8184 64.2852 34.035 64.5113 34.1889 64.8167C34.3452 65.1198 34.4233 65.5056 34.4233 65.9744V69.4403H33.5852V66.0312C33.5852 65.598 33.4728 65.263 33.2479 65.0262C33.0253 64.7871 32.7164 64.6676 32.321 64.6676C32.0464 64.6676 31.8002 64.7256 31.5824 64.8416C31.367 64.9576 31.1965 65.1269 31.071 65.3494C30.9479 65.5719 30.8864 65.8418 30.8864 66.1591ZM35.9565 69.4403V63.9858H36.7662V64.8096H36.823C36.9224 64.5397 37.1023 64.3208 37.3627 64.1527C37.6232 63.9846 37.9167 63.9005 38.2434 63.9005C38.305 63.9005 38.3819 63.9017 38.4743 63.9041C38.5666 63.9065 38.6364 63.91 38.6838 63.9147V64.767C38.6554 64.7599 38.5903 64.7493 38.4885 64.7351C38.389 64.7185 38.2837 64.7102 38.1724 64.7102C37.9073 64.7102 37.6705 64.7658 37.4622 64.8771C37.2562 64.986 37.0929 65.1375 36.9721 65.3316C36.8538 65.5234 36.7946 65.7424 36.7946 65.9886V69.4403H35.9565ZM43.5408 65.2074L42.788 65.4204C42.7406 65.2949 42.6708 65.173 42.5785 65.0547C42.4885 64.9339 42.3654 64.8345 42.2092 64.7564C42.0529 64.6782 41.8529 64.6392 41.609 64.6392C41.2752 64.6392 40.997 64.7161 40.7745 64.87C40.5543 65.0215 40.4442 65.2145 40.4442 65.4488C40.4442 65.6572 40.52 65.8217 40.6715 65.9424C40.823 66.0632 41.0598 66.1638 41.3817 66.2443L42.1914 66.4431C42.6791 66.5615 43.0425 66.7426 43.2816 66.9865C43.5207 67.2279 43.6403 67.5393 43.6403 67.9204C43.6403 68.2329 43.5503 68.5123 43.3704 68.7585C43.1928 69.0047 42.9442 69.1988 42.6246 69.3409C42.305 69.4829 41.9334 69.5539 41.5096 69.5539C40.9532 69.5539 40.4928 69.4332 40.1282 69.1917C39.7636 68.9503 39.5328 68.5975 39.4357 68.1335L40.2312 67.9346C40.3069 68.2282 40.4502 68.4484 40.6609 68.5951C40.8739 68.7419 41.1521 68.8153 41.4954 68.8153C41.886 68.8153 42.1961 68.7324 42.4258 68.5667C42.6578 68.3986 42.7738 68.1974 42.7738 67.963C42.7738 67.7736 42.7075 67.615 42.5749 67.4872C42.4424 67.357 42.2388 67.2599 41.9641 67.196L41.055 66.9829C40.5555 66.8646 40.1886 66.6811 39.9542 66.4325C39.7222 66.1815 39.6062 65.8679 39.6062 65.4914C39.6062 65.1837 39.6926 64.9114 39.8654 64.6747C40.0406 64.4379 40.2785 64.2521 40.5792 64.1172C40.8822 63.9822 41.2255 63.9147 41.609 63.9147C42.1488 63.9147 42.5726 64.0331 42.8803 64.2699C43.1905 64.5066 43.4106 64.8191 43.5408 65.2074ZM47.4728 61.8267L45.1291 70.5341H44.362L46.7058 61.8267H47.4728ZM49.7021 69.4403L48.0401 63.9858H48.9208L50.0998 68.1619H50.1566L51.3214 63.9858H52.2163L53.3668 68.1477H53.4237L54.6026 63.9858H55.4833L53.8214 69.4403H52.9975L51.8043 65.25H51.7191L50.5259 69.4403H49.7021ZM58.6926 69.5539C58.1671 69.5539 57.7137 69.4379 57.3326 69.2059C56.9538 68.9716 56.6614 68.6449 56.4554 68.2258C56.2518 67.8044 56.15 67.3144 56.15 66.7556C56.15 66.1969 56.2518 65.7045 56.4554 65.2784C56.6614 64.8499 56.9479 64.5161 57.3148 64.277C57.6841 64.0355 58.115 63.9147 58.6074 63.9147C58.8915 63.9147 59.1721 63.9621 59.449 64.0568C59.726 64.1515 59.9782 64.3054 60.2054 64.5184C60.4327 64.7291 60.6138 65.0085 60.7488 65.3565C60.8837 65.7045 60.9512 66.133 60.9512 66.642V66.9971H56.7466V66.2727H60.0989C60.0989 65.9649 60.0373 65.6903 59.9142 65.4488C59.7935 65.2074 59.6207 65.0168 59.3958 64.8771C59.1732 64.7374 58.9105 64.6676 58.6074 64.6676C58.2736 64.6676 57.9848 64.7504 57.7409 64.9162C57.4995 65.0795 57.3136 65.2926 57.1834 65.5554C57.0532 65.8181 56.9881 66.0999 56.9881 66.4005V66.8835C56.9881 67.2954 57.0591 67.6446 57.2012 67.9311C57.3456 68.2152 57.5456 68.4318 57.8013 68.5809C58.057 68.7277 58.3541 68.8011 58.6926 68.8011C58.9128 68.8011 59.1117 68.7703 59.2892 68.7088C59.4692 68.6449 59.6242 68.5502 59.7544 68.4247C59.8846 68.2968 59.9853 68.1382 60.0563 67.9488L60.8659 68.1761C60.7807 68.4507 60.6375 68.6922 60.4363 68.9005C60.235 69.1065 59.9864 69.2675 59.6905 69.3835C59.3946 69.4971 59.062 69.5539 58.6926 69.5539ZM64.513 69.5539C63.9874 69.5539 63.534 69.4379 63.1529 69.2059C62.7741 68.9716 62.4817 68.6449 62.2757 68.2258C62.0721 67.8044 61.9703 67.3144 61.9703 66.7556C61.9703 66.1969 62.0721 65.7045 62.2757 65.2784C62.4817 64.8499 62.7682 64.5161 63.1351 64.277C63.5044 64.0355 63.9353 63.9147 64.4277 63.9147C64.7118 63.9147 64.9924 63.9621 65.2694 64.0568C65.5463 64.1515 65.7985 64.3054 66.0257 64.5184C66.253 64.7291 66.4341 65.0085 66.5691 65.3565C66.704 65.7045 66.7715 66.133 66.7715 66.642V66.9971H62.5669V66.2727H65.9192C65.9192 65.9649 65.8577 65.6903 65.7346 65.4488C65.6138 65.2074 65.441 65.0168 65.2161 64.8771C64.9935 64.7374 64.7308 64.6676 64.4277 64.6676C64.0939 64.6676 63.8051 64.7504 63.5613 64.9162C63.3198 65.0795 63.1339 65.2926 63.0037 65.5554C62.8735 65.8181 62.8084 66.0999 62.8084 66.4005V66.8835C62.8084 67.2954 62.8794 67.6446 63.0215 67.9311C63.1659 68.2152 63.3659 68.4318 63.6216 68.5809C63.8773 68.7277 64.1744 68.8011 64.513 68.8011C64.7331 68.8011 64.932 68.7703 65.1096 68.7088C65.2895 68.6449 65.4445 68.5502 65.5748 68.4247C65.705 68.2968 65.8056 68.1382 65.8766 67.9488L66.6863 68.1761C66.601 68.4507 66.4578 68.6922 66.2566 68.9005C66.0553 69.1065 65.8068 69.2675 65.5108 69.3835C65.2149 69.4971 64.8823 69.5539 64.513 69.5539ZM68.8276 67.4517L68.8134 66.4147H68.9838L71.3702 63.9858H72.4071L69.8645 66.5568H69.7935L68.8276 67.4517ZM68.0463 69.4403V62.1676H68.8844V69.4403H68.0463ZM71.5123 69.4403L69.3816 66.7414L69.9782 66.1591L72.5776 69.4403H71.5123Z" fill="#737373"/>
</svg>
