<?xml version="1.0" encoding="utf-8"?>
<!-- Generator: Adobe Illustrator 29.7.1, SVG Export Plug-In . SVG Version: 9.03 Build 0)  -->
<svg version="1.0" id="Layer_1" xmlns="http://www.w3.org/2000/svg" xmlns:xlink="http://www.w3.org/1999/xlink" x="0px" y="0px"
	 viewBox="0 0 102 103" style="enable-background:new 0 0 102 103;" xml:space="preserve">
<style type="text/css">
	.st0{fill:#C4C4C4;}
	.st1{fill:#102B7B;}
	.st2{fill:#2ECC71;}
	.st3{fill:#F2994A;}
</style>
<path class="st0" d="M102,51.44c0,28.17-22.83,51-51,51s-51-22.83-51-51s22.83-51,51-51S102,23.27,102,51.44z M17.8,51.44
	c0,18.34,14.86,33.2,33.2,33.2s33.2-14.86,33.2-33.2S69.34,18.24,51,18.24S17.8,33.1,17.8,51.44z"/>
<path class="st1" d="M42.47,1.16c6.97-1.18,14.11-0.9,20.97,0.82s13.28,4.85,18.86,9.19s10.2,9.79,13.57,16.01s5.4,13.07,5.97,20.12
	s-0.32,14.14-2.63,20.82s-5.99,12.81-10.79,18c-4.81,5.19-10.64,9.32-17.12,12.13c-6.49,2.81-13.49,4.24-20.56,4.21l0.1-17.7
	c4.62,0.03,9.19-0.91,13.42-2.75c4.24-1.84,8.04-4.53,11.18-7.92s5.54-7.39,7.05-11.75s2.09-8.99,1.72-13.59s-1.7-9.07-3.9-13.13
	c-2.2-4.06-5.21-7.62-8.86-10.45s-7.84-4.88-12.32-6c-4.48-1.13-9.14-1.31-13.69-0.53L42.48,1.19L42.47,1.16z"/>
<path class="st2" d="M42.47,1.22c6.97-1.18,14.11-0.9,20.97,0.82s13.28,4.85,18.86,9.19s10.2,9.79,13.57,16.01s5.4,13.07,5.97,20.12
	s-0.32,14.14-2.63,20.82s-5.99,12.81-10.79,18c-4.81,5.19-10.64,9.32-17.12,12.13c-6.49,2.81-13.49,4.24-20.56,4.21l0.1-17.7
	c4.62,0.03,9.19-0.91,13.42-2.75c4.24-1.84,8.04-4.53,11.18-7.92s5.54-7.39,7.05-11.75s2.09-8.99,1.72-13.59s-1.7-9.07-3.9-13.13
	c-2.2-4.06-5.21-7.62-8.86-10.45s-7.84-4.88-12.32-6c-4.48-1.13-9.14-1.31-13.69-0.53L42.48,1.25L42.47,1.22z"/>
<path class="st3" d="M7.05,77.31C2.6,69.76,0.18,61.19,0,52.43c-0.17-8.76,1.92-17.42,6.07-25.14S16.29,13.05,23.69,8.36
	c7.41-4.69,15.9-7.39,24.65-7.85l0.92,17.68c-5.71,0.3-11.25,2.06-16.09,5.13c-4.83,3.06-8.8,7.32-11.51,12.36
	s-4.07,10.69-3.96,16.41c0.11,5.72,1.69,11.32,4.6,16.25L7.05,77.31L7.05,77.31z"/>
<path class="st2" d="M51,102.44c-13.53,0-26.5-5.37-36.06-14.94C5.37,77.94,0,64.97,0,51.44s5.37-26.5,14.94-36.06
	C24.5,5.81,37.47,0.44,51,0.44v17.7c-8.83,0-17.3,3.51-23.55,9.75S17.7,42.61,17.7,51.44s3.51,17.3,9.75,23.55S42.17,84.74,51,84.74
	V102.44z"/>
</svg>
