<?xml version="1.0" encoding="UTF-8"?>
<svg id="Layer_1" xmlns="http://www.w3.org/2000/svg" version="1.1" viewBox="0 0 102 103">
  <!-- Generator: Adobe Illustrator 29.7.1, SVG Export Plug-In . SVG Version: 2.1.1 Build 8)  -->
  <defs>
    <style>
      .st0 {
        fill: #f2994a;
      }

      .st1 {
        fill: #c4c4c4;
      }

      .st2 {
        fill: #2ecc71;
      }

      .st3 {
        fill: #102b7b;
      }
    </style>
  </defs>
  <path class="st1" d="M102,51.44c0,28.17-22.83,51-51,51S0,79.61,0,51.44,22.83.44,51,.44s51,22.83,51,51ZM17.8,51.44c0,18.34,14.86,33.2,33.2,33.2s33.2-14.86,33.2-33.2-14.86-33.2-33.2-33.2-33.2,14.86-33.2,33.2Z"/>
  <path class="st3" d="M42.47,1.16c6.97-1.18,14.11-.9,20.97.82,6.86,1.72,13.28,4.85,18.86,9.19,5.58,4.34,10.2,9.79,13.57,16.01s5.4,13.07,5.97,20.12c.57,7.05-.32,14.14-2.63,20.82-2.31,6.68-5.99,12.81-10.79,18-4.81,5.19-10.64,9.32-17.12,12.13-6.49,2.81-13.49,4.24-20.56,4.21l.1-17.7c4.62.03,9.19-.91,13.42-2.75,4.24-1.84,8.04-4.53,11.18-7.92,3.14-3.39,5.54-7.39,7.05-11.75,1.51-4.36,2.09-8.99,1.72-13.59s-1.7-9.07-3.9-13.13c-2.2-4.06-5.21-7.62-8.86-10.45-3.65-2.83-7.84-4.88-12.32-6-4.48-1.13-9.14-1.31-13.69-.53l-2.96-17.45Z"/>
  <path class="st2" d="M42.47,1.22c6.97-1.18,14.11-.9,20.97.82,6.86,1.72,13.28,4.85,18.86,9.19,5.58,4.34,10.2,9.79,13.57,16.01s5.4,13.07,5.97,20.12c.57,7.05-.32,14.14-2.63,20.82-2.31,6.68-5.99,12.81-10.79,18-4.81,5.19-10.64,9.32-17.12,12.13-6.49,2.81-13.49,4.24-20.56,4.21l.1-17.7c4.62.03,9.19-.91,13.42-2.75,4.24-1.84,8.04-4.53,11.18-7.92,3.14-3.39,5.54-7.39,7.05-11.75,1.51-4.36,2.09-8.99,1.72-13.59s-1.7-9.07-3.9-13.13c-2.2-4.06-5.21-7.62-8.86-10.45-3.65-2.83-7.84-4.88-12.32-6-4.48-1.13-9.14-1.31-13.69-.53l-2.96-17.45Z"/>
  <path class="st0" d="M7.05,77.31C2.6,69.76.18,61.19,0,52.43c-.17-8.76,1.92-17.42,6.07-25.14,4.15-7.72,10.22-14.24,17.62-18.93C31.1,3.67,39.59.97,48.34.51l.92,17.68c-5.71.3-11.25,2.06-16.09,5.13-4.83,3.06-8.8,7.32-11.51,12.36-2.71,5.04-4.07,10.69-3.96,16.41.11,5.72,1.69,11.32,4.6,16.25l-15.25,8.98Z"/>
  <path class="st2" d="M51,102.44c-13.53,0-26.5-5.37-36.06-14.94C5.37,77.94,0,64.97,0,51.44S5.37,24.94,14.94,15.38C24.5,5.81,37.47.44,51,.44v17.7c-8.83,0-17.3,3.51-23.55,9.75-6.25,6.24-9.75,14.72-9.75,23.55s3.51,17.3,9.75,23.55c6.24,6.25,14.72,9.75,23.55,9.75v17.7Z"/>
</svg>