<svg width="35" height="35" viewBox="0 0 35 35" fill="none" xmlns="http://www.w3.org/2000/svg">
<circle cx="17.42" cy="17.42" r="17.42" fill="#102B7B"/>
<mask id="mask0_15_469" style="mask-type:alpha" maskUnits="userSpaceOnUse" x="0" y="0" width="35" height="35">
<circle cx="17.42" cy="17.42" r="17.42" fill="#102B7B"/>
</mask>
<g mask="url(#mask0_15_469)">
<path d="M17.5616 18.259C8.25689 18.259 0.690918 23.3343 0.690918 29.5845C0.690918 32.4511 2.24171 35.0358 4.87335 37.0095C4.92034 37.0565 4.92034 37.0565 4.96734 37.1035C5.2493 37.2915 5.53126 37.4794 5.81322 37.6674C8.86781 39.6411 13.0032 40.863 17.5616 40.863C22.12 40.863 26.3024 39.6411 29.31 37.6674C29.545 37.4324 29.827 37.2445 30.1559 37.1035C30.2029 37.0565 30.2029 37.0565 30.2499 37.0095C32.8346 35.0358 34.4323 32.4041 34.4323 29.5845C34.3853 23.3343 26.8664 18.259 17.5616 18.259Z" fill="#2ECC71"/>
<path d="M30.8609 22.6764C30.6729 22.4884 30.485 22.3475 30.25 22.2065C30.062 22.5354 29.8271 22.8174 29.5921 23.0994C28.4172 24.2742 26.6785 24.7911 24.9867 24.3212C23.4359 23.8982 22.3081 22.7234 21.8381 21.3136C21.9321 23.0524 23.5769 24.3682 25.2687 24.8381C26.9134 25.3081 29.3101 24.8851 30.344 23.6633C32.6467 25.496 34.1505 27.8457 34.3384 30.3834C34.3384 30.1484 34.3854 29.9134 34.3854 29.7255C34.3854 27.0468 33.0696 24.6032 30.8609 22.6764Z" fill="#27C165"/>
<path d="M31.237 30.7594C27.9944 38.2314 8.21013 38.7483 3.83972 30.5244C3.83972 30.5244 8.82104 27.5168 17.7498 27.5168C26.2087 27.5168 31.237 30.7594 31.237 30.7594Z" fill="url(#paint0_linear_15_469)"/>
<path d="M4.21544 22.6764C4.40341 22.4884 4.59139 22.3475 4.82636 22.2065C5.01433 22.5354 5.2493 22.8174 5.48427 23.0994C6.65911 24.2742 8.39787 24.7911 10.0896 24.3212C11.6404 23.8982 12.7683 22.7234 13.2382 21.3136C13.1442 23.0524 11.4994 24.3682 9.80768 24.8381C8.1629 25.3081 5.76623 24.8851 4.73237 23.6633C2.42968 25.496 0.925887 27.8457 0.737913 30.3834C0.737913 30.1484 0.690918 29.9134 0.690918 29.7255C0.690918 27.0468 2.00674 24.6032 4.21544 22.6764Z" fill="#27C165"/>
<path d="M17.562 19.4807C18.9718 19.4807 20.3816 19.6217 21.6974 19.8097C21.6974 19.3868 21.7444 19.0108 21.8384 18.5879C20.4756 18.3529 19.0188 18.2119 17.562 18.2119C16.0582 18.2119 14.6484 18.3529 13.2856 18.5879C13.3796 19.0108 13.4266 19.3868 13.4266 19.8097C14.7424 19.6217 16.1052 19.4807 17.562 19.4807Z" fill="#27C165"/>
<path d="M26.3495 24.5092C28.9189 24.5092 31.0019 22.4263 31.0019 19.8568C31.0019 17.2874 28.9189 15.2045 26.3495 15.2045C23.7801 15.2045 21.6971 17.2874 21.6971 19.8568C21.6971 22.4263 23.7801 24.5092 26.3495 24.5092Z" fill="#00993E"/>
<path d="M26.2087 24.1333C28.6743 24.1333 30.6731 22.1345 30.6731 19.6689C30.6731 17.2032 28.6743 15.2045 26.2087 15.2045C23.7431 15.2045 21.7443 17.2032 21.7443 19.6689C21.7443 22.1345 23.7431 24.1333 26.2087 24.1333Z" fill="#2ECC71"/>
<path d="M26.2086 23.3814C28.2589 23.3814 29.9211 21.7193 29.9211 19.6689C29.9211 17.6186 28.2589 15.9564 26.2086 15.9564C24.1582 15.9564 22.4961 17.6186 22.4961 19.6689C22.4961 21.7193 24.1582 23.3814 26.2086 23.3814Z" fill="url(#paint1_radial_15_469)"/>
<path d="M26.2082 18.6349C25.2213 18.6349 24.4224 19.3868 24.3284 20.3737L25.4093 20.6556L24.4694 21.2195C24.7514 21.9244 25.4093 22.3944 26.2082 22.3944C27.242 22.3944 28.0879 21.5485 28.0879 20.5146C28.0879 19.4808 27.242 18.6349 26.2082 18.6349Z" fill="#2A5351"/>
<path d="M24.3284 20.3738C24.3284 20.4208 24.3284 20.4678 24.3284 20.5148C24.3284 20.7497 24.3754 21.0317 24.4694 21.2197L25.4093 20.6557L24.3284 20.3738Z" fill="white"/>
<path d="M8.77413 24.5092C11.3436 24.5092 13.4265 22.4263 13.4265 19.8568C13.4265 17.2874 11.3436 15.2045 8.77413 15.2045C6.2047 15.2045 4.12177 17.2874 4.12177 19.8568C4.12177 22.4263 6.2047 24.5092 8.77413 24.5092Z" fill="#00993E"/>
<path d="M8.86826 24.1333C11.3339 24.1333 13.3327 22.1345 13.3327 19.6689C13.3327 17.2032 11.3339 15.2045 8.86826 15.2045C6.40265 15.2045 4.40387 17.2032 4.40387 19.6689C4.40387 22.1345 6.40265 24.1333 8.86826 24.1333Z" fill="#2ECC71"/>
<path d="M8.86813 23.3814C10.9185 23.3814 12.5806 21.7193 12.5806 19.6689C12.5806 17.6186 10.9185 15.9564 8.86813 15.9564C6.81778 15.9564 5.15564 17.6186 5.15564 19.6689C5.15564 21.7193 6.81778 23.3814 8.86813 23.3814Z" fill="url(#paint2_radial_15_469)"/>
<path d="M8.86772 18.6349C7.88085 18.6349 7.08196 19.3868 6.98798 20.3737L8.06883 20.6556L7.12896 21.2195C7.41092 21.9244 8.06883 22.3944 8.86772 22.3944C9.90158 22.3944 10.7475 21.5485 10.7475 20.5146C10.7475 19.4808 9.90158 18.6349 8.86772 18.6349Z" fill="#2A5351"/>
<path d="M6.98798 20.3738C6.98798 20.4208 6.98798 20.4678 6.98798 20.5148C6.98798 20.7497 7.03497 21.0317 7.12896 21.2197L8.06883 20.6557L6.98798 20.3738Z" fill="white"/>
<path d="M3.83972 30.7594C8.21013 41.239 27.9944 40.6281 31.237 31.0414C26.3497 38.7483 10.0429 38.4664 3.83972 30.7594Z" fill="url(#paint3_linear_15_469)"/>
<path d="M31.237 30.7593C27.9944 38.2312 8.21013 38.7482 3.83972 30.5243" stroke="#00993E" stroke-width="0.533395" stroke-miterlimit="10"/>
<path d="M16.3195 24.0642C16.5716 24.0642 16.7759 23.8599 16.7759 23.6079C16.7759 23.3558 16.5716 23.1515 16.3195 23.1515C16.0675 23.1515 15.8632 23.3558 15.8632 23.6079C15.8632 23.8599 16.0675 24.0642 16.3195 24.0642Z" fill="#44A85F"/>
<path d="M18.9124 24.0642C19.1645 24.0642 19.3688 23.8599 19.3688 23.6079C19.3688 23.3558 19.1645 23.1515 18.9124 23.1515C18.6604 23.1515 18.4561 23.3558 18.4561 23.6079C18.4561 23.8599 18.6604 24.0642 18.9124 24.0642Z" fill="#44A85F"/>
<path d="M32.116 31.2085C32.1845 31.0687 31.8432 30.7609 31.3537 30.5212C30.8642 30.2814 30.4119 30.2004 30.3434 30.3403C30.2749 30.4801 30.6162 30.7879 31.1057 31.0276C31.5952 31.2674 32.0475 31.3484 32.116 31.2085Z" fill="#00993E"/>
<path d="M3.96653 30.7778C4.45602 30.538 4.7973 30.2303 4.7288 30.0904C4.66029 29.9506 4.20795 30.0316 3.71846 30.2713C3.22896 30.5111 2.88769 30.8188 2.95619 30.9587C3.02469 31.0985 3.47703 31.0175 3.96653 30.7778Z" fill="#00993E"/>
<path opacity="0.17" d="M32.1299 26.2009C32.597 26.2009 32.9758 25.8222 32.9758 25.355C32.9758 24.8879 32.597 24.5092 32.1299 24.5092C31.6627 24.5092 31.284 24.8879 31.284 25.355C31.284 25.8222 31.6627 26.2009 32.1299 26.2009Z" fill="#006D2C"/>
<path opacity="0.17" d="M3.0404 26.0599C3.50757 26.0599 3.88629 25.6812 3.88629 25.214C3.88629 24.7469 3.50757 24.3682 3.0404 24.3682C2.57323 24.3682 2.19452 24.7469 2.19452 25.214C2.19452 25.6812 2.57323 26.0599 3.0404 26.0599Z" fill="#006D2C"/>
</g>
<defs>
<linearGradient id="paint0_linear_15_469" x1="17.5428" y1="36.5124" x2="17.5428" y2="27.5344" gradientUnits="userSpaceOnUse">
<stop stop-color="#3BE07E"/>
<stop offset="0.0338869" stop-color="#3ADF7D"/>
<stop offset="0.5522" stop-color="#31D174"/>
<stop offset="1" stop-color="#2ECC71"/>
</linearGradient>
<radialGradient id="paint1_radial_15_469" cx="0" cy="0" r="1" gradientUnits="userSpaceOnUse" gradientTransform="translate(26.2136 19.6588) scale(3.71377)">
<stop offset="0.5167" stop-color="white"/>
<stop offset="0.737" stop-color="#F7F7F7"/>
<stop offset="1" stop-color="#E6E7E8"/>
</radialGradient>
<radialGradient id="paint2_radial_15_469" cx="0" cy="0" r="1" gradientUnits="userSpaceOnUse" gradientTransform="translate(8.87218 19.6588) rotate(180) scale(3.71376)">
<stop offset="0.5167" stop-color="white"/>
<stop offset="0.737" stop-color="#F7F7F7"/>
<stop offset="1" stop-color="#E6E7E8"/>
</radialGradient>
<linearGradient id="paint3_linear_15_469" x1="17.5428" y1="38.448" x2="17.5428" y2="26.956" gradientUnits="userSpaceOnUse">
<stop stop-color="#2ECC71"/>
<stop offset="0.3969" stop-color="#2AC66A"/>
<stop offset="1" stop-color="#27C165"/>
</linearGradient>
</defs>
</svg>
